<svg viewBox="230.152 288.45 89.68 85.44" width="89.68" height="85.44" xmlns="http://www.w3.org/2000/svg">
  <path class="cls-1" d="M 256.112 321.82 C 255.892 321.67 255.642 321.48 255.372 321.28 C 246.452 314.7 246.132 299.28 247.082 299.56 C 247.592 299.7 253.082 304.92 257.022 305.24 C 257.452 305.24 251.242 298.63 261.572 299.24 C 272.702 299.93 280.572 303.86 289.022 307.32 C 281.962 307.21 280.632 309.25 281.022 309.26 C 285.282 309.39 295.102 311.38 301.112 314.42 C 307.122 317.46 310.732 319.42 312.402 322.36 C 312.402 322.36 313.582 324.06 309.102 327.57 C 307.262 329.03 304.322 333.31 301.362 337.87 C 301.752 335.61 302.362 330.87 301.432 329.81 C 297.992 325.87 289.552 331.75 287.052 336.41 C 285.462 339.41 289.612 342.98 297.812 342.98 L 298.052 342.98 C 295.292 347.24 292.892 350.85 291.792 351.47 C 283.792 355.99 282.262 338.63 276.082 340.23 C 268.942 342.12 265.332 355.84 265.122 355.76 C 263.232 355.34 309.872 371.5 319.832 373.89 L 319.832 288.45 L 230.152 288.45 L 230.152 310.53 C 242.752 312.59 252.282 319.35 256.112 321.82 Z" style="fill: rgb(255, 255, 255);"/>
</svg>